<svg width="100" height="100" viewBox="0 0 100 100" fill="none" xmlns="http://www.w3.org/2000/svg">
<path d="M24 73.1313C24.925 83.55 33.4563 90.9438 46.4438 91.9V99.5H52.9625V91.9C67.15 90.7812 75.95 82.9125 75.95 71.275C75.95 61.3375 70.0312 55.5875 57.475 52.35L52.9625 51.1813V27.4187C59.975 28.1063 64.7063 31.8813 65.9 37.5188H75.0875C74.05 27.5188 65.4625 20.3438 52.9625 19.55V12H46.4438V19.7063C34.325 21.1438 26.0063 28.9062 26.0063 39.4312C26.0063 48.5187 32.0437 54.95 42.6375 57.6625L46.45 58.675V83.8687C39.2688 82.8062 34.325 78.8688 33.1312 73.1313H24ZM45.1937 49.1562C38.675 47.5125 35.1937 44 35.1937 39.0562C35.1937 33.1562 39.5938 28.8 46.4438 27.6312V49.475L45.1937 49.1562ZM55.1375 60.8563C63.1813 62.875 66.7125 66.225 66.7125 71.9125C66.7125 78.7688 61.55 83.3375 52.9625 84.0312V60.3125L55.1375 60.85V60.8563Z" fill="black"/>
</svg>
