<svg width="100" height="100" viewBox="0 0 100 100" fill="none" xmlns="http://www.w3.org/2000/svg">
<g clip-path="url(#clip0_9_29)">
<path d="M50 100C50 100 87.5 64.4625 87.5 37.5C87.5 27.5544 83.5491 18.0161 76.5165 10.9835C69.4839 3.95088 59.9456 0 50 0C40.0544 0 30.5161 3.95088 23.4835 10.9835C16.4509 18.0161 12.5 27.5544 12.5 37.5C12.5 64.4625 50 100 50 100ZM50 56.25C45.0272 56.25 40.2581 54.2746 36.7417 50.7583C33.2254 47.2419 31.25 42.4728 31.25 37.5C31.25 32.5272 33.2254 27.7581 36.7417 24.2417C40.2581 20.7254 45.0272 18.75 50 18.75C54.9728 18.75 59.7419 20.7254 63.2583 24.2417C66.7746 27.7581 68.75 32.5272 68.75 37.5C68.75 42.4728 66.7746 47.2419 63.2583 50.7583C59.7419 54.2746 54.9728 56.25 50 56.25Z" fill="black"/>
</g>
<defs>
<clipPath id="clip0_9_29">
<rect width="100" height="100" fill="white"/>
</clipPath>
</defs>
</svg>
