<svg width="100" height="100" viewBox="0 0 100 100" fill="none" xmlns="http://www.w3.org/2000/svg">
<g clip-path="url(#clip0_9_31)">
<path d="M18.75 31.25C15.4348 31.25 12.2554 32.567 9.91117 34.9112C7.56696 37.2554 6.25 40.4348 6.25 43.75V46.875H3.125C2.2962 46.875 1.50134 47.2042 0.915291 47.7903C0.32924 48.3763 0 49.1712 0 50C0 50.8288 0.32924 51.6237 0.915291 52.2097C1.50134 52.7958 2.2962 53.125 3.125 53.125H6.25V56.25C6.25 59.5652 7.56696 62.7446 9.91117 65.0888C12.2554 67.433 15.4348 68.75 18.75 68.75H25C29.9728 68.75 34.7419 66.7746 38.2583 63.2583C41.7746 59.7419 43.75 54.9728 43.75 50C43.75 48.3424 44.4085 46.7527 45.5806 45.5806C46.7527 44.4085 48.3424 43.75 50 43.75C51.6576 43.75 53.2473 44.4085 54.4194 45.5806C55.5915 46.7527 56.25 48.3424 56.25 50C56.25 54.9728 58.2254 59.7419 61.7417 63.2583C65.258 66.7746 70.0272 68.75 75 68.75H81.25C84.5652 68.75 87.7446 67.433 90.0888 65.0888C92.433 62.7446 93.75 59.5652 93.75 56.25V53.125H96.875C97.7038 53.125 98.4987 52.7958 99.0847 52.2097C99.6708 51.6237 100 50.8288 100 50C100 49.1712 99.6708 48.3763 99.0847 47.7903C98.4987 47.2042 97.7038 46.875 96.875 46.875H93.75V43.75C93.75 40.4348 92.433 37.2554 90.0888 34.9112C87.7446 32.567 84.5652 31.25 81.25 31.25H68.75C66.159 31.249 63.6317 32.0533 61.5178 33.5514C59.4038 35.0495 57.8076 37.1676 56.95 39.6125C54.8952 38.2324 52.4753 37.4969 50 37.5C47.5247 37.4969 45.1048 38.2324 43.05 39.6125C42.1924 37.1676 40.5962 35.0495 38.4822 33.5514C36.3683 32.0533 33.841 31.249 31.25 31.25H18.75ZM18.75 37.5H24.6313C26.2812 37.5 26.8062 39.725 25.3312 40.4625L22.475 41.8875C20.0573 43.0968 18.0968 45.0573 16.8875 47.475L15.4625 50.3313C14.725 51.8063 12.5 51.2813 12.5 49.625V43.75C12.5 42.0924 13.1585 40.5027 14.3306 39.3306C15.5027 38.1585 17.0924 37.5 18.75 37.5Z" fill="black"/>
</g>
<defs>
<clipPath id="clip0_9_31">
<rect width="100" height="100" fill="white"/>
</clipPath>
</defs>
</svg>
